<svg width="80" height="80" viewBox="0 0 80 80" fill="none" xmlns="http://www.w3.org/2000/svg">
<g clip-path="url(#clip0_231_26717)">
<path d="M50.8332 16.6667H31.6665C30.2865 16.6667 29.1665 15.5467 29.1665 14.1667V2.5C29.1665 1.12 30.2865 0 31.6665 0H50.8332C51.8098 0 52.6965 0.566667 53.1032 1.45667C53.5132 2.34333 53.3665 3.38667 52.7298 4.13L49.1265 8.33333L52.7332 12.54C53.3698 13.2833 53.5132 14.3267 53.1065 15.2133C52.6965 16.1 51.8098 16.6667 50.8332 16.6667Z" fill="#10CA00"/>
<path d="M31.6665 26.6667C30.2865 26.6667 29.1665 25.5467 29.1665 24.1667V2.5C29.1665 1.12 30.2865 0 31.6665 0C33.0465 0 34.1665 1.12 34.1665 2.5V24.1667C34.1665 25.5467 33.0465 26.6667 31.6665 26.6667Z" fill="#607D8B"/>
<path d="M45.3665 43.3991L38.2665 49.3991C37.7998 49.7991 37.2332 49.9991 36.6665 49.9991C36.0332 49.9991 35.3998 49.7657 34.8998 49.2657L31.6665 46.0324L28.4332 49.2657C27.4998 50.1991 26.0332 50.2324 25.0665 49.3991L18.1665 43.5991L20.6332 39.1324L29.4665 22.9657C29.8998 22.1657 30.7332 21.6657 31.6665 21.6657C32.4998 21.5657 33.3998 22.1324 33.8332 22.9324L42.8665 38.9657L45.3665 43.3991Z" fill="#ECEFF1"/>
<path d="M31.6665 0C30.2865 0 29.1665 1.12 29.1665 2.5V23.5167L29.4665 22.9667C29.8998 22.1667 30.7332 21.6667 31.6665 21.6667V0Z" fill="#546D79"/>
<path d="M31.6665 21.666C30.7332 21.666 29.8998 22.166 29.4665 22.966L29.1665 23.516L20.6332 39.1327L18.1665 43.5993L25.0665 49.3993C25.5265 49.796 26.1032 49.996 26.6765 49.996C27.3098 49.996 27.9432 49.756 28.4332 49.266L31.6665 46.0327V21.666Z" fill="#CDD0D2"/>
<path d="M77.5 79.9993H43.86C42.99 79.9993 42.1833 79.5459 41.7267 78.8059C41.2733 78.0659 41.2367 77.1393 41.6333 76.3659L57.7733 44.6993C58.1933 43.8759 59.0333 43.3526 59.9567 43.3359C61.01 43.4093 61.7433 43.8193 62.1867 44.6259L79.6867 76.2926C80.1133 77.0659 80.1033 78.0093 79.6533 78.7726C79.2033 79.5326 78.3867 79.9993 77.5 79.9993Z" fill="#A634FF"/>
<path d="M59.9567 43.334C59.0333 43.3507 58.1933 43.874 57.7733 44.6973L41.6333 76.364C41.2367 77.1407 41.2733 78.064 41.7267 78.804C42.1833 79.5473 42.99 80.0007 43.86 80.0007H60V43.3373C59.9867 43.3373 59.9733 43.334 59.9567 43.334Z" fill="#57009B"/>
<path d="M63.8334 76.2671L45.3667 43.4004L38.2667 49.4004C37.8 49.8004 37.2334 50.0004 36.6667 50.0004C36.0334 50.0004 35.4 49.7671 34.9 49.2671L31.6667 46.0337L28.4334 49.2671C27.5 50.2004 26.0334 50.2337 25.0667 49.4004L18.1667 43.6004L0.300025 76.3004C-0.133309 77.0671 -0.0999754 78.0004 0.333358 78.7671C0.800025 79.5337 1.63336 80.0004 2.50002 80.0004H61.6667C62.5667 80.0004 63.3667 79.5337 63.8334 78.7671C64.2667 78.0004 64.2667 77.0337 63.8334 76.2671Z" fill="#A634FF"/>
<path d="M18.1667 43.5996L0.300025 76.2996C-0.133309 77.0663 -0.0999754 77.9996 0.333358 78.7663C0.800025 79.5329 1.63336 79.9996 2.50002 79.9996H31.6667V46.0329L28.4334 49.2663C27.9434 49.7529 27.31 49.9963 26.6767 49.9963C26.1 49.9963 25.5267 49.7963 25.0667 49.3996L18.1667 43.5996Z" fill="#57009B"/>
</g>
<defs>
<clipPath id="clip0_231_26717">
<rect width="80" height="80" fill="white"/>
</clipPath>
</defs>
</svg>
