<svg width="20" height="20" viewBox="0 0 20 20" fill="none" xmlns="http://www.w3.org/2000/svg">
<g clip-path="url(#clip0_243_27366)">
<path d="M19.4786 8.6514L17.3606 6.53343C17.1876 6.36515 16.9553 6.27176 16.7139 6.27346C16.4725 6.27516 16.2415 6.37182 16.0709 6.54252C15.9002 6.71322 15.8036 6.94424 15.802 7.1856C15.8004 7.42697 15.8939 7.65927 16.0622 7.83226L17.2012 8.97132H12.7989C12.6761 8.96774 12.5538 8.98883 12.4393 9.03335C12.3248 9.07787 12.2204 9.14492 12.1323 9.23051C12.0441 9.31611 11.9741 9.41851 11.9263 9.53167C11.8784 9.64483 11.8538 9.76643 11.8538 9.88929C11.8538 10.0121 11.8784 10.1338 11.9263 10.2469C11.9741 10.3601 12.0441 10.4625 12.1323 10.5481C12.2204 10.6337 12.3248 10.7007 12.4393 10.7452C12.5538 10.7897 12.6761 10.8108 12.7989 10.8073H17.2423L16.1032 11.9467C16.0179 12.032 15.9503 12.1332 15.9042 12.2446C15.858 12.356 15.8343 12.4754 15.8343 12.5959C15.8343 12.7165 15.858 12.8359 15.9042 12.9473C15.9503 13.0587 16.0179 13.1599 16.1032 13.2451C16.2754 13.4173 16.5089 13.5141 16.7524 13.5141C16.873 13.5141 16.9924 13.4903 17.1038 13.4442C17.2152 13.398 17.3164 13.3304 17.4016 13.2451L19.4786 11.1682C19.6439 11.0029 19.7751 10.8067 19.8645 10.5907C19.954 10.3747 20 10.1432 20 9.90941C20 9.67562 19.954 9.44413 19.8645 9.22815C19.7751 9.01216 19.6439 8.81592 19.4786 8.65062V8.6514Z" fill="#D7443E"/>
<path d="M14.4063 11.9836C14.1727 11.9876 13.9488 12.0778 13.7777 12.237C13.6067 12.3962 13.5005 12.613 13.4797 12.8457C13.4457 13.293 13.4118 13.4434 13.3696 13.7766C13.3083 14.2227 13.1025 14.6364 12.7836 14.9543C12.4652 15.2774 12.0503 15.4883 11.6016 15.5551L11.575 15.5586C11.3016 15.5977 11.0477 15.632 10.7832 15.6633C10.8348 14.6367 10.8676 13.45 10.8758 12.2723C10.8907 10.3246 10.8368 8.31523 10.7301 7.01836C10.6503 6.1115 10.381 5.23149 9.93989 4.43516C9.50356 3.65078 8.93637 3.03437 8.34184 2.7082L8.32348 2.69844C7.80512 2.41484 7.36606 2.17461 6.60824 1.85508C6.9309 1.84453 7.24496 1.83789 7.66293 1.83789C9.7227 1.84609 10.4516 1.96992 11.4645 2.12266L11.4895 2.12656C11.9357 2.20266 12.3456 2.42028 12.6586 2.74727C12.9766 3.07141 13.1841 3.48768 13.2516 3.93672C13.3598 4.72148 13.4469 5.61641 13.4993 6.9082C13.5184 7.39492 13.9289 7.79219 14.4282 7.80391C14.9414 7.81562 15.3481 7.42539 15.3246 6.93633C15.2645 5.66602 15.1649 4.72539 15.0348 3.87617C14.9071 3.04531 14.4832 2.23164 13.859 1.58164C13.2348 0.931641 12.4407 0.480469 11.6133 0.335547L11.5879 0.33125C10.5778 0.163281 9.78324 0.0128906 7.66606 0.00195312C5.54926 0.0144531 4.80473 0.1625 3.79301 0.329688L3.76762 0.334375C2.94028 0.478906 2.14418 0.93125 1.51918 1.58008C0.894182 2.22891 0.471135 3.04375 0.343401 3.87461C0.153947 5.09766 0.016838 7.0125 0.00238489 8.8832C-0.0120682 10.7539 0.085588 12.6664 0.25551 13.8855C0.331197 14.4049 0.511818 14.9035 0.786369 15.3508C0.862541 15.507 0.944572 15.6633 1.03246 15.8125C1.48832 16.5902 2.07387 17.2211 2.67699 17.575L2.69535 17.5859C3.43051 18.0156 4.01332 18.3629 5.53246 19.0117C7.04731 19.6523 7.60278 19.7812 8.31098 19.9492L8.32856 19.9535C8.90746 20.0883 9.45395 19.9023 9.87739 19.4395C10.2875 18.991 10.5645 18.3035 10.6547 17.5023C11.0262 17.4582 11.3579 17.4082 11.7168 17.3523L11.7426 17.348C12.586 17.2164 13.3938 16.7809 14.0204 16.1469C14.6469 15.5129 15.0625 14.7098 15.177 13.8813C15.2262 13.5227 15.2645 13.3465 15.3028 12.8859C15.3446 12.3848 14.9329 11.973 14.4063 11.9836Z" fill="#57009B"/>
</g>
<defs>
<clipPath id="clip0_243_27366">
<rect width="20" height="20" fill="white"/>
</clipPath>
</defs>
</svg>
