<svg width="80" height="80" viewBox="0 0 80 80" fill="none" xmlns="http://www.w3.org/2000/svg">
<g clip-path="url(#clip0_234_26821)">
<path d="M80 40C80 62.0916 62.0916 80 40 80C17.9084 80 0 62.0916 0 40C0 17.9084 17.9084 0 40 0C62.0916 0 80 17.9084 80 40Z" fill="#DDDDDD"/>
<path d="M72.1054 40.6539C72.1054 57.9743 58.0648 72.0149 40.7452 72.0149C23.4249 72.0149 9.38428 57.9743 9.38428 40.6539C9.38428 23.3336 23.4249 9.29297 40.7452 9.29297C58.0648 9.29297 72.1054 23.3336 72.1054 40.6539Z" fill="#A634FF"/>
<path d="M62.9204 18.4781C56.1571 11.7155 47.0742 8.68868 38.2329 9.3952C45.4023 9.96812 52.4117 12.9942 57.8963 18.4781C70.1434 30.7252 70.1434 50.5818 57.8963 62.8289C52.4117 68.3128 45.4023 71.3396 38.2329 71.9118C47.0742 72.6183 56.1571 69.5915 62.9204 62.8289C75.1675 50.5818 75.1675 30.7252 62.9204 18.4781Z" fill="#57009B"/>
<path d="M63.5514 40.6541C63.5514 53.25 53.34 63.4606 40.7449 63.4606C28.1491 63.4606 17.9385 53.25 17.9385 40.6541C17.9385 28.0583 28.1491 17.8477 40.7449 17.8477C53.34 17.8477 63.5514 28.0583 63.5514 40.6541Z" fill="#FD919E"/>
<path d="M54.2929 40.6539C54.2929 48.1366 48.2271 54.2024 40.7452 54.2024C33.2626 54.2024 27.1968 48.1366 27.1968 40.6539C27.1968 33.1713 33.2626 27.1055 40.7452 27.1055C48.2271 27.1055 54.2929 33.1713 54.2929 40.6539Z" fill="white"/>
<path d="M45.8417 40.6533C45.8417 43.468 43.5598 45.7499 40.7451 45.7499C37.9303 45.7499 35.6484 43.468 35.6484 40.6533C35.6484 37.8385 37.9303 35.5566 40.7451 35.5566C43.5598 35.5566 45.8417 37.8385 45.8417 40.6533Z" fill="#FD919E"/>
<path d="M40.7451 73.1736C32.0585 73.1736 23.892 69.7912 17.75 63.6484C5.07032 50.9687 5.07032 30.3377 17.75 17.658C23.892 11.516 32.0585 8.13281 40.7451 8.13281C49.4317 8.13281 57.5975 11.516 63.7403 17.658C76.42 30.3377 76.42 50.9687 63.7403 63.6484C57.5975 69.7904 49.4317 73.1736 40.7451 73.1736ZM40.7451 10.4517C32.6783 10.4517 25.0937 13.5933 19.3895 19.2975C7.6141 31.0729 7.6141 50.2335 19.3895 62.0089C25.0937 67.7131 32.6783 70.8547 40.7451 70.8547C48.812 70.8547 56.3958 67.7131 62.1008 62.0089C73.8762 50.2335 73.8762 31.0729 62.1008 19.2975C56.3958 13.5933 48.812 10.4517 40.7451 10.4517Z" fill="#4C4372"/>
<path d="M40.7452 64.6185C34.3435 64.6185 28.3252 62.1253 23.7985 57.5993C19.2717 53.0726 16.7793 47.0543 16.7793 40.6526C16.7793 34.2517 19.2717 28.2334 23.7985 23.7067C28.3252 19.18 34.3435 16.6875 40.7452 16.6875C47.1461 16.6875 53.1644 19.18 57.6911 23.7067C62.2179 28.2326 64.7103 34.2517 64.7103 40.6526C64.7103 47.0543 62.2179 53.0726 57.6911 57.5993C53.1644 62.1261 47.1461 64.6185 40.7452 64.6185ZM40.7452 19.0056C34.9624 19.0056 29.5269 21.2572 25.438 25.3462C21.3498 29.4343 19.0974 34.8706 19.0974 40.6526C19.0974 46.4346 21.349 51.8709 25.438 55.9591C29.5269 60.048 34.9624 62.2997 40.7452 62.2997C46.5272 62.2997 51.9627 60.048 56.0516 55.9591C60.1398 51.8709 62.3922 46.4346 62.3922 40.6526C62.3922 34.8706 60.1406 29.4343 56.0516 25.3462C51.9627 21.2572 46.5272 19.0056 40.7452 19.0056Z" fill="#4C4372"/>
<path d="M40.7453 55.3611C36.8164 55.3611 33.123 53.831 30.3453 51.0533C24.6108 45.3188 24.6108 35.9876 30.3453 30.2531C33.123 27.4754 36.8164 25.9453 40.7453 25.9453C44.6735 25.9453 48.3669 27.4754 51.1446 30.2531C56.8791 35.9876 56.8791 45.3188 51.1446 51.0533C48.3669 53.831 44.6735 55.3611 40.7453 55.3611ZM40.7453 28.2642C37.4362 28.2642 34.3247 29.5534 31.9848 31.8934C27.1546 36.7235 27.1546 44.5828 31.9848 49.413C34.3247 51.753 37.4362 53.0415 40.7453 53.0415C44.0545 53.0415 47.1652 51.753 49.5051 49.413C54.3353 44.5828 54.3353 36.7235 49.5051 31.8934C47.1652 29.5534 44.0545 28.2642 40.7453 28.2642Z" fill="#4C4372"/>
<path d="M40.7453 46.9086C39.0741 46.9086 37.5025 46.2579 36.3212 45.0758C35.1399 43.8945 34.4893 42.3237 34.4893 40.6525C34.4893 38.9813 35.1399 37.4105 36.3212 36.2285C37.5025 35.0471 39.0741 34.3965 40.7453 34.3965C42.4157 34.3965 43.9873 35.0471 45.1686 36.2285C46.3499 37.4105 47.0013 38.9813 47.0013 40.6525C47.0013 42.3237 46.3499 43.8945 45.1686 45.0766C43.9873 46.2579 42.4165 46.9086 40.7453 46.9086ZM40.7453 36.7153C39.6931 36.7153 38.705 37.1252 37.9615 37.8687C37.2172 38.6122 36.8081 39.601 36.8081 40.6525C36.8081 41.704 37.2172 42.6928 37.9607 43.4363C38.705 44.1798 39.6931 44.5897 40.7453 44.5897C41.7968 44.5897 42.7856 44.1806 43.5291 43.4363C44.2726 42.6928 44.6825 41.704 44.6825 40.6525C44.6825 39.601 44.2726 38.6122 43.5291 37.8687C42.7848 37.1252 41.7968 36.7153 40.7453 36.7153Z" fill="#4C4372"/>
<path d="M15.1821 7.98633L22.1507 14.9549L21.2396 21.3317L14.271 14.3631L15.1821 7.98633Z" fill="#FD919E"/>
<path d="M14.2711 14.3613L21.2397 21.3299L14.8629 22.241L7.89502 15.2724L14.2711 14.3613Z" fill="#FD919E"/>
<path d="M40.6423 41.8935C40.3456 41.8935 40.049 41.7803 39.8225 41.5538L13.451 15.1823C12.9981 14.7294 12.9981 13.9957 13.451 13.5428C13.9039 13.0899 14.6384 13.0899 15.0905 13.5428L41.462 39.9143C41.9149 40.3665 41.9149 41.1009 41.462 41.5538C41.2356 41.7803 40.9389 41.8935 40.6423 41.8935Z" fill="#4C4372"/>
<path d="M21.2396 22.4903C20.9377 22.4903 20.641 22.3718 20.4199 22.1506L13.4513 15.182C13.1931 14.9239 13.0716 14.5593 13.1237 14.1977L14.0347 7.82166C14.0966 7.38687 14.3993 7.02455 14.816 6.88566C15.2327 6.74678 15.6916 6.85547 16.0026 7.16571L22.9704 14.1343C23.2286 14.3925 23.3501 14.757 23.2988 15.1179L22.3877 21.4947C22.3258 21.9294 22.0231 22.2918 21.6065 22.4307C21.4864 22.4707 21.3626 22.4903 21.2396 22.4903ZM15.5014 13.9524L20.4199 18.8709L20.9211 15.3639L16.0018 10.4454L15.5014 13.9524Z" fill="#4C4372"/>
<path d="M14.8627 23.4021C14.5578 23.4021 14.2627 23.2813 14.0438 23.0624L7.0744 16.0938C6.76416 15.7829 6.65547 15.3239 6.79436 14.9073C6.93325 14.4906 7.29556 14.1879 7.73035 14.126L14.1072 13.2149C14.4695 13.1628 14.8333 13.2851 15.0907 13.5433L22.0593 20.5119C22.3703 20.8221 22.479 21.2818 22.3401 21.6985C22.2012 22.1151 21.8389 22.4171 21.4041 22.479L15.0273 23.39C14.9722 23.3983 14.9171 23.4021 14.8627 23.4021ZM10.3541 16.0938L15.2726 21.0131L18.7803 20.5119L13.8611 15.5926L10.3541 16.0938Z" fill="#4C4372"/>
</g>
<defs>
<clipPath id="clip0_234_26821">
<rect width="80" height="80" fill="white"/>
</clipPath>
</defs>
</svg>
