<svg width="74" height="74" viewBox="0 0 74 74" fill="none" xmlns="http://www.w3.org/2000/svg">
<path d="M37 50.75C57.0203 50.75 73.25 42.3553 73.25 32C73.25 21.6447 57.0203 13.25 37 13.25C16.9797 13.25 0.75 21.6447 0.75 32C0.75 42.3553 16.9797 50.75 37 50.75Z" fill="#AAE1F9"/>
<path d="M43.1662 43.25C30.2037 43.25 18.365 37.7337 9.2725 28.645C17.935 21.9576 28.5566 18.3049 39.5 18.25C51.4586 18.3358 62.9947 22.6827 72.0362 30.51C63.1862 19.875 50.7687 13.25 37 13.25C22.595 13.25 9.6575 20.5 0.75 32C9.6575 43.5 22.595 50.75 37 50.75C51.265 50.75 64.085 43.6375 72.9837 32.3263C64.613 39.3166 54.0718 43.1784 43.1662 43.25Z" fill="#57B7EB"/>
<path d="M55.75 31.9996C55.7542 28.8025 54.9409 25.6574 53.3873 22.8631C51.8337 20.0689 49.5914 17.7183 46.8734 16.0348C44.1555 14.3512 41.0522 13.3906 37.8584 13.2443C34.6646 13.0979 31.4865 13.7706 28.6259 15.1985C25.7654 16.6264 23.3175 18.762 21.5148 21.4025C19.7121 24.0429 18.6145 27.1004 18.3263 30.2845C18.0381 33.4686 18.5689 36.6735 19.8683 39.5947C21.1676 42.5159 23.1923 45.0563 25.75 46.9746V50.7496H48.25V46.9746C50.5779 45.2331 52.4679 42.9729 53.7698 40.3735C55.0717 37.774 55.7497 34.9069 55.75 31.9996Z" fill="#FCBC04"/>
<path d="M49.5 50.75H24.5C23.1193 50.75 22 51.8693 22 53.25C22 54.6307 23.1193 55.75 24.5 55.75H49.5C50.8807 55.75 52 54.6307 52 53.25C52 51.8693 50.8807 50.75 49.5 50.75Z" fill="#D0D8DA"/>
<path d="M49.5 55.75H24.5C23.1193 55.75 22 56.8693 22 58.25C22 59.6307 23.1193 60.75 24.5 60.75H49.5C50.8807 60.75 52 59.6307 52 58.25C52 56.8693 50.8807 55.75 49.5 55.75Z" fill="#D0D8DA"/>
<path d="M25.75 60.75H48.25V62C48.25 64.9837 47.0647 67.8452 44.955 69.955C42.8452 72.0647 39.9837 73.25 37 73.25C34.0163 73.25 31.1548 72.0647 29.045 69.955C26.9353 67.8452 25.75 64.9837 25.75 62V60.75Z" fill="#93999A"/>
<path d="M50.7502 44.5002C44.1198 44.5002 37.7609 41.8663 33.0725 37.1779C28.3841 32.4895 25.7502 26.1306 25.7502 19.5002C25.7503 18.6411 25.7941 17.7825 25.8814 16.9277C23.527 18.6568 21.6103 20.9133 20.2851 23.5166C18.9599 26.1198 18.2629 28.9973 18.2502 31.9184C18.2374 34.8396 18.9092 37.723 20.2116 40.3377C21.514 42.9525 23.4109 45.2257 25.7502 46.9752V50.7502H48.2502V46.9752C49.2199 46.2351 50.1161 45.4034 50.9264 44.4915C50.8664 44.4915 50.8089 44.5002 50.7502 44.5002Z" fill="#E59730"/>
<path d="M37 40.75C41.8325 40.75 45.75 36.8325 45.75 32C45.75 27.1675 41.8325 23.25 37 23.25C32.1675 23.25 28.25 27.1675 28.25 32C28.25 36.8325 32.1675 40.75 37 40.75Z" fill="#57B7EB"/>
<path d="M42 30.75C44.0711 30.75 45.75 29.0711 45.75 27C45.75 24.9289 44.0711 23.25 42 23.25C39.9289 23.25 38.25 24.9289 38.25 27C38.25 29.0711 39.9289 30.75 42 30.75Z" fill="#AAE1F9"/>
<path d="M28.375 30.5977C28.1626 31.8493 28.2268 33.1323 28.5631 34.3565C28.8993 35.5807 29.4995 36.7164 30.3215 37.684C31.1434 38.6515 32.1673 39.4274 33.321 39.9571C34.4748 40.4868 35.7305 40.7575 37 40.7502C37.195 40.7502 37.3875 40.7339 37.58 40.7214C33.6325 38.2655 30.4455 34.7604 28.375 30.5977Z" fill="#4891D3"/>
<path d="M25.75 50.75H24.5C23.837 50.75 23.2011 51.0134 22.7322 51.4822C22.2634 51.9511 22 52.587 22 53.25C22 53.913 22.2634 54.5489 22.7322 55.0178C23.2011 55.4866 23.837 55.75 24.5 55.75H49.5C50.163 55.75 50.7989 55.4866 51.2678 55.0178C51.7366 54.5489 52 53.913 52 53.25H28.25C27.587 53.25 26.9511 52.9866 26.4822 52.5178C26.0134 52.0489 25.75 51.413 25.75 50.75Z" fill="#93999A"/>
<path d="M25.75 55.75H24.5C23.837 55.75 23.2011 56.0134 22.7322 56.4822C22.2634 56.9511 22 57.587 22 58.25C22 58.913 22.2634 59.5489 22.7322 60.0178C23.2011 60.4866 23.837 60.75 24.5 60.75H49.5C50.163 60.75 50.7989 60.4866 51.2678 60.0178C51.7366 59.5489 52 58.913 52 58.25H28.25C27.587 58.25 26.9511 57.9866 26.4822 57.5178C26.0134 57.0489 25.75 56.413 25.75 55.75Z" fill="#93999A"/>
<path d="M40.75 65.75H47.5963C48.0266 64.5465 48.2478 63.2782 48.25 62V60.75H25.75V62C25.7513 64.3307 26.4768 66.6035 27.8263 68.5038C29.1757 70.4042 31.0824 71.8382 33.2825 72.6075C33.4433 70.7374 34.2995 68.9955 35.6821 67.7259C37.0646 66.4563 38.873 65.7512 40.75 65.75Z" fill="#656B76"/>
<path d="M44.6889 8.8754C44.567 8.87504 44.4458 8.85737 44.3289 8.8229C44.1716 8.7758 44.0251 8.69818 43.8979 8.59447C43.7706 8.49077 43.665 8.36301 43.5871 8.2185C43.5092 8.07399 43.4606 7.91555 43.4439 7.75223C43.4273 7.58891 43.443 7.42391 43.4901 7.26665L44.9426 2.4304C45.0377 2.1128 45.2552 1.84601 45.547 1.68871C45.8389 1.53142 46.1813 1.4965 46.4989 1.59165C46.8164 1.68679 47.0832 1.90421 47.2405 2.19606C47.3978 2.48792 47.4327 2.8303 47.3376 3.1479L45.8851 7.98165C45.8084 8.23951 45.6506 8.46576 45.4351 8.62678C45.2196 8.7878 44.9579 8.87499 44.6889 8.8754Z" fill="#F9E109"/>
<path d="M53.1649 10.9722C52.9484 10.972 52.7356 10.9156 52.5474 10.8084C52.3593 10.7013 52.2022 10.5471 52.0915 10.3609C51.9809 10.1748 51.9205 9.96312 51.9163 9.74663C51.912 9.53014 51.9641 9.31626 52.0674 9.12595L54.4874 4.6672C54.5658 4.52291 54.6718 4.39547 54.7994 4.29216C54.9271 4.18885 55.0738 4.11169 55.2313 4.06509C55.3887 4.01849 55.5538 4.00335 55.7171 4.02055C55.8804 4.03775 56.0387 4.08694 56.183 4.16533C56.3273 4.24371 56.4547 4.34974 56.558 4.47738C56.6614 4.60501 56.7385 4.75174 56.7851 4.9092C56.8317 5.06665 56.8469 5.23174 56.8297 5.39504C56.8125 5.55835 56.7633 5.71666 56.6849 5.86095L54.2649 10.3185C54.1574 10.5164 53.9985 10.6817 53.8049 10.7968C53.6113 10.9118 53.3901 10.9724 53.1649 10.9722Z" fill="#F9E109"/>
<path d="M61.9289 14.8964C61.6909 14.8961 61.4579 14.8279 61.2573 14.6998C61.0567 14.5717 60.8969 14.389 60.7966 14.1732C60.6963 13.9573 60.6597 13.7173 60.6911 13.4814C60.7225 13.2455 60.8206 13.0234 60.9739 12.8414L64.2601 8.93887C64.3652 8.81101 64.4946 8.70528 64.6408 8.62782C64.7871 8.55036 64.9472 8.50271 65.112 8.48763C65.2768 8.47254 65.4429 8.49033 65.6008 8.53995C65.7587 8.58958 65.9051 8.67006 66.0316 8.77672C66.1582 8.88338 66.2622 9.0141 66.3378 9.1613C66.4135 9.3085 66.4591 9.46924 66.4721 9.63421C66.4851 9.79918 66.4652 9.96509 66.4136 10.1223C66.362 10.2795 66.2796 10.425 66.1714 10.5501L62.8851 14.4526C62.7677 14.5918 62.6213 14.7036 62.4561 14.7802C62.2909 14.8569 62.111 14.8965 61.9289 14.8964Z" fill="#F9E109"/>
<path d="M68.3026 21.1053C68.0465 21.1048 67.7967 21.0256 67.5871 20.8785C67.3774 20.7313 67.218 20.5233 67.1305 20.2826C67.0429 20.0419 67.0314 19.7801 67.0975 19.5327C67.1637 19.2852 67.3042 19.064 67.5001 18.8991L71.3751 15.6491C71.63 15.4451 71.9545 15.3489 72.2793 15.3811C72.6041 15.4132 72.9034 15.5711 73.1134 15.821C73.3233 16.071 73.4271 16.3931 73.4027 16.7186C73.3783 17.044 73.2275 17.3471 72.9826 17.5628L69.1076 20.8128C68.8821 21.0021 68.597 21.1057 68.3026 21.1053Z" fill="#F9E109"/>
<path d="M12.0711 14.8957C11.889 14.8958 11.7091 14.8562 11.5439 14.7795C11.3788 14.7029 11.2323 14.5911 11.1149 14.4519L7.82864 10.5494C7.61991 10.2954 7.51967 9.96934 7.54964 9.64192C7.57961 9.31451 7.73737 9.01208 7.98875 8.80016C8.24013 8.58824 8.56487 8.48389 8.89264 8.50973C9.22041 8.53556 9.52481 8.68949 9.73989 8.93817L13.0261 12.8407C13.1794 13.0227 13.2775 13.2448 13.3089 13.4807C13.3403 13.7166 13.3037 13.9566 13.2034 14.1725C13.1031 14.3883 12.9433 14.571 12.7427 14.6991C12.5421 14.8272 12.3091 14.8954 12.0711 14.8957Z" fill="#F9E109"/>
<path d="M20.8352 10.9722C20.61 10.9725 20.3889 10.9118 20.1952 10.7968C20.0016 10.6817 19.8427 10.5164 19.7352 10.3185L17.3152 5.86095C17.1569 5.56955 17.1209 5.22719 17.215 4.9092C17.3091 4.59121 17.5257 4.32363 17.8171 4.16533C18.1085 4.00703 18.4509 3.97097 18.7689 4.06509C19.0869 4.15921 19.3544 4.3758 19.5127 4.6672L21.9327 9.12595C22.0363 9.3163 22.0886 9.53031 22.0846 9.74699C22.0805 9.96366 22.0201 10.1755 21.9095 10.3619C21.7988 10.5482 21.6416 10.7025 21.4532 10.8097C21.2649 10.917 21.0519 10.9734 20.8352 10.9735V10.9722Z" fill="#F9E109"/>
<path d="M5.6975 21.107C5.42094 21.1073 5.15216 21.0154 4.93375 20.8457L1.23625 17.9895C1.10054 17.8913 0.985941 17.7669 0.899249 17.6236C0.812557 17.4803 0.755544 17.3211 0.731596 17.1553C0.707648 16.9896 0.717252 16.8207 0.759839 16.6587C0.802426 16.4967 0.877127 16.345 0.979506 16.2124C1.08189 16.0799 1.20985 15.9693 1.35581 15.8872C1.50177 15.805 1.66275 15.7531 1.82918 15.7344C1.99561 15.7157 2.1641 15.7306 2.32464 15.7783C2.48519 15.826 2.63451 15.9054 2.76375 16.012L6.46125 18.8682C6.66745 19.0277 6.81863 19.2477 6.89363 19.4973C6.96863 19.747 6.9637 20.0138 6.87953 20.2606C6.79536 20.5073 6.63617 20.7215 6.42422 20.8733C6.21227 21.025 5.95818 21.1067 5.6975 21.107Z" fill="#F9E109"/>
<path d="M29.3112 8.87594C29.0425 8.87569 28.781 8.78886 28.5656 8.62833C28.3501 8.46779 28.1921 8.24209 28.1149 7.98469L26.6624 3.14594C26.5673 2.82835 26.6022 2.48596 26.7595 2.19411C26.9168 1.90226 27.1836 1.68484 27.5012 1.58969C27.8188 1.49455 28.1612 1.52946 28.453 1.68676C28.7449 1.84406 28.9623 2.11085 29.0574 2.42844L30.5099 7.2647C30.5571 7.42195 30.5728 7.58695 30.5561 7.75027C30.5395 7.91359 30.4908 8.07203 30.4129 8.21655C30.335 8.36106 30.2294 8.48882 30.1022 8.59252C29.9749 8.69622 29.8285 8.77384 29.6712 8.82094C29.5544 8.85626 29.4332 8.87478 29.3112 8.87594Z" fill="#F9E109"/>
<path d="M37 8.25C36.6685 8.25 36.3505 8.1183 36.1161 7.88388C35.8817 7.64946 35.75 7.33152 35.75 7V2C35.75 1.66848 35.8817 1.35054 36.1161 1.11612C36.3505 0.881696 36.6685 0.75 37 0.75C37.3315 0.75 37.6495 0.881696 37.8839 1.11612C38.1183 1.35054 38.25 1.66848 38.25 2V7C38.25 7.33152 38.1183 7.64946 37.8839 7.88388C37.6495 8.1183 37.3315 8.25 37 8.25Z" fill="#F9E109"/>
<path d="M41.9998 50.75H39.4998V39.8963C39.5005 39.6606 39.5677 39.43 39.6938 39.231C39.8198 39.0319 39.9996 38.8726 40.2123 38.7713C41.4917 38.1604 42.5727 37.2009 43.3312 36.0031C44.0896 34.8052 44.4947 33.4177 44.4998 32C44.4998 31.7813 44.4898 31.5625 44.4698 31.3463C43.518 31.8867 42.4151 32.0998 41.3304 31.9529C40.2458 31.8061 39.2393 31.3074 38.4654 30.5334C37.6915 29.7593 37.1929 28.7527 37.0463 27.668C36.8996 26.5833 37.113 25.4805 37.6536 24.5288C37.4373 24.51 37.2186 24.5 36.9998 24.5C35.3004 24.5046 33.653 25.0861 32.3274 26.1494C31.0018 27.2127 30.0765 28.6946 29.7032 30.3525C29.3299 32.0104 29.5307 33.7459 30.2727 35.2747C31.0147 36.8035 32.2539 38.035 33.7873 38.7675C34 38.8688 34.1798 39.0282 34.3058 39.2272C34.4319 39.4263 34.4991 39.6569 34.4998 39.8925V50.75H31.9998V40.65C30.0937 39.5502 28.6038 37.852 27.7615 35.8189C26.9192 33.7858 26.7715 31.5315 27.3414 29.4059C27.9112 27.2802 29.1668 25.4021 30.9132 24.0631C32.6596 22.724 34.7991 21.9988 36.9998 22C38.192 22.0019 39.3742 22.2182 40.4898 22.6388C40.7094 22.7207 40.9015 22.8628 41.0443 23.0487C41.187 23.2346 41.2745 23.457 41.297 23.6903C41.3194 23.9236 41.2757 24.1585 41.171 24.3682C41.0663 24.5779 40.9048 24.754 40.7048 24.8763C40.3376 25.0959 40.0335 25.4071 39.8223 25.7793C39.6112 26.1515 39.5 26.5721 39.4998 27C39.4998 27.663 39.7632 28.2989 40.232 28.7678C40.7009 29.2366 41.3368 29.5 41.9998 29.5C42.4281 29.4999 42.849 29.3887 43.2215 29.1772C43.5939 28.9658 43.9052 28.6614 44.1248 28.2938C44.2461 28.0929 44.4221 27.9306 44.6321 27.8259C44.8421 27.7212 45.0776 27.6784 45.3111 27.7025C45.5444 27.7247 45.7669 27.812 45.953 27.9546C46.1391 28.0972 46.2814 28.2892 46.3636 28.5088C47.1956 30.7211 47.2134 33.1573 46.414 35.3817C45.6145 37.606 44.0498 39.4735 41.9998 40.65V50.75Z" fill="#F9E109"/>
<path d="M63.9665 54.9668C63.7844 54.967 63.6045 54.9273 63.4393 54.8507C63.2741 54.774 63.1277 54.6622 63.0102 54.5231L59.724 50.6243C59.6157 50.4992 59.5334 50.3538 59.4818 50.1965C59.4302 50.0393 59.4103 49.8734 59.4233 49.7084C59.4363 49.5435 59.4819 49.3827 59.5575 49.2355C59.6331 49.0883 59.7372 48.9576 59.8637 48.8509C59.9903 48.7443 60.1367 48.6638 60.2946 48.6142C60.4524 48.5645 60.6186 48.5468 60.7834 48.5618C60.9482 48.5769 61.1083 48.6246 61.2546 48.702C61.4008 48.7795 61.5302 48.8852 61.6352 49.0131L64.9215 52.9156C65.0751 53.0976 65.1736 53.3198 65.2052 53.5559C65.2368 53.7921 65.2003 54.0323 65.1 54.2484C64.9996 54.4644 64.8396 54.6473 64.6388 54.7755C64.438 54.9037 64.2047 54.9718 63.9665 54.9718V54.9668Z" fill="#F9E109"/>
<path d="M72.1713 48.1056C71.8774 48.106 71.593 48.0019 71.3688 47.8119L67.4938 44.5618C67.3637 44.4577 67.2557 44.3286 67.1763 44.1822C67.0968 44.0357 67.0474 43.8748 67.031 43.709C67.0146 43.5431 67.0315 43.3757 67.0807 43.2165C67.13 43.0573 67.2106 42.9096 67.3178 42.782C67.4249 42.6544 67.5566 42.5495 67.7049 42.4735C67.8532 42.3975 68.0152 42.3519 68.1814 42.3394C68.3475 42.327 68.5145 42.3478 68.6725 42.4009C68.8305 42.4539 68.9763 42.5379 69.1013 42.6481L72.9763 45.8981C73.1729 46.0631 73.3139 46.2846 73.3803 46.5325C73.4466 46.7804 73.435 47.0427 73.3471 47.2838C73.2592 47.525 73.0992 47.7332 72.8888 47.8802C72.6785 48.0272 72.428 48.1059 72.1713 48.1056Z" fill="#F9E109"/>
<path d="M10.034 54.9666C9.79572 54.9665 9.56246 54.8984 9.36165 54.7703C9.16084 54.6421 9.00083 54.4592 8.90048 54.2431C8.80014 54.0271 8.76362 53.7868 8.79524 53.5507C8.82686 53.3146 8.92529 53.0924 9.07895 52.9103L12.3652 49.0078C12.4713 48.8823 12.6011 48.779 12.7472 48.7037C12.8933 48.6283 13.0527 48.5825 13.2165 48.5688C13.3803 48.5551 13.5452 48.5738 13.7017 48.6238C13.8583 48.6739 14.0035 48.7542 14.129 48.8603C14.2544 48.9665 14.3578 49.0963 14.4331 49.2423C14.5085 49.3884 14.5543 49.5479 14.568 49.7117C14.5817 49.8755 14.563 50.0403 14.513 50.1969C14.4629 50.3534 14.3826 50.4986 14.2765 50.6241L10.9902 54.5278C10.8723 54.6661 10.7256 54.7769 10.5605 54.8527C10.3953 54.9285 10.2157 54.9674 10.034 54.9666Z" fill="#F9E109"/>
<path d="M1.99996 47.7112C1.73928 47.711 1.48518 47.6293 1.27324 47.4775C1.06129 47.3257 0.902094 47.1115 0.817926 46.8648C0.733758 46.6181 0.728829 46.3512 0.80383 46.1015C0.878831 45.8519 1.03001 45.6319 1.23621 45.4724L4.93371 42.6174C5.06295 42.5109 5.21227 42.4314 5.37282 42.3838C5.53336 42.3361 5.70185 42.3211 5.86828 42.3398C6.03471 42.3585 6.19568 42.4105 6.34164 42.4926C6.4876 42.5747 6.61557 42.6854 6.71795 42.8179C6.82033 42.9504 6.89503 43.1022 6.93762 43.2642C6.98021 43.4261 6.98981 43.595 6.96586 43.7608C6.94191 43.9265 6.8849 44.0858 6.79821 44.2291C6.71152 44.3724 6.59691 44.4968 6.46121 44.5949L2.76371 47.4499C2.54529 47.6196 2.27652 47.7115 1.99996 47.7112Z" fill="#F9E109"/>
</svg>
