<svg width="180" height="180" viewBox="0 0 180 180" fill="none" xmlns="http://www.w3.org/2000/svg">
<path d="M60.0497 137.387C60.0479 134.315 61.2449 131.429 63.4157 129.257L70.4465 122.228C72.6191 120.055 75.5063 118.86 78.5753 118.86C81.6461 118.86 84.5333 120.055 86.7059 122.228L89.9999 125.522L93.2957 122.228C95.4683 120.055 98.3573 118.86 101.428 118.86C104.499 118.86 107.384 120.053 109.553 122.224L116.586 129.253C118.758 131.426 119.954 134.315 119.952 137.389C119.952 140.458 118.753 143.345 116.584 145.514L113.297 148.801C114.8 148.805 116.314 148.81 117.77 148.81C137.385 148.81 152.372 147.802 152.372 127.304C152.37 105.84 135.948 88.2202 114.987 86.3086H65.0069C44.0477 88.2238 27.6299 105.842 27.6299 127.304C27.6299 147.8 42.6095 148.81 62.2259 148.81C63.6839 148.81 65.1995 148.805 66.7043 148.801L63.4193 145.516C61.2467 143.345 60.0497 140.456 60.0497 137.387Z" fill="#57009B"/>
<path d="M89.998 80.1288C109.64 80.1288 125.562 64.2061 125.562 44.5644C125.562 24.9227 109.64 9 89.998 9C70.3563 9 54.4336 24.9227 54.4336 44.5644C54.4336 64.2061 70.3563 80.1288 89.998 80.1288Z" fill="#57009B"/>
<path d="M102.305 148.816L111.09 140.027C112.548 138.57 112.548 136.211 111.09 134.753L104.061 127.722C103.334 126.996 102.38 126.633 101.428 126.633C100.472 126.633 99.5182 126.998 98.7874 127.725L89.9998 136.515L81.2122 127.725C80.4832 126.998 79.5292 126.633 78.5752 126.633C77.6212 126.633 76.6672 126.998 75.9382 127.725L68.9092 134.754C67.4512 136.212 67.453 138.57 68.9092 140.027L77.6968 148.816L68.9092 157.604C67.453 159.063 67.453 161.421 68.9092 162.878L75.9382 169.907C76.6672 170.636 77.623 170.999 78.5752 170.999C79.5292 170.999 80.4832 170.636 81.2122 169.908L89.9998 161.119L98.7874 169.908C99.5146 170.636 100.47 170.999 101.424 170.999C102.38 170.999 103.334 170.636 104.061 169.908L111.09 162.878C112.548 161.421 112.548 159.063 111.09 157.604L102.305 148.816Z" fill="#D7443E"/>
</svg>
