<svg width="40" height="40" viewBox="0 0 40 40" fill="none" xmlns="http://www.w3.org/2000/svg">
<path d="M36.6667 30.5334L25.6501 11.45C25.4892 11.169 25.2242 10.9626 24.9123 10.8753C24.6005 10.788 24.2669 10.8268 23.9834 10.9834L15.4667 15.8834C15.1886 16.0471 14.9857 16.3133 14.9015 16.6249C14.8174 16.9364 14.8588 17.2686 15.0167 17.55L26.0334 36.6667C26.2484 37.0424 26.559 37.3545 26.9337 37.5711C27.3085 37.7877 27.7339 37.9012 28.1667 37.9H28.3334C28.7931 37.8724 29.2361 37.7175 29.6128 37.4526C29.9896 37.1877 30.2852 36.8233 30.4667 36.4L31.5167 33.8834L34.2501 34.2167C34.7139 34.2806 35.1864 34.2129 35.6136 34.0213C36.0409 33.8298 36.4058 33.5221 36.6667 33.1334C36.907 32.7423 37.0342 32.2923 37.0342 31.8334C37.0342 31.3744 36.907 30.9244 36.6667 30.5334Z" fill="#8F00FF"/>
<path d="M25.7832 16.6666C25.7424 16.5062 25.6697 16.3557 25.5695 16.224C25.4692 16.0923 25.3435 15.9821 25.1998 15.8999L16.6665 10.9833C16.3822 10.831 16.05 10.7945 15.7393 10.8815C15.4287 10.9685 15.1638 11.1721 14.9998 11.4499L3.98318 30.5333C3.74291 30.9243 3.61572 31.3743 3.61572 31.8333C3.61572 32.2922 3.74291 32.7422 3.98318 33.1333C4.23808 33.5168 4.59396 33.8225 5.01158 34.0166C5.4292 34.2107 5.89231 34.2857 6.34984 34.2333L9.04984 33.8833L10.1332 36.4166C10.3147 36.8399 10.6104 37.2043 10.9871 37.4692C11.3638 37.7341 11.8068 37.889 12.2665 37.9166H12.4998C12.934 37.9144 13.3599 37.7977 13.7344 37.5782C14.109 37.3587 14.419 37.0443 14.6332 36.6666L25.6498 17.5666C25.809 17.2951 25.8568 16.9726 25.7832 16.6666Z" fill="#8F00FF"/>
<path d="M33.8333 13.85L32.35 12.3666C32.1955 12.2109 32.0733 12.0262 31.9904 11.8231C31.9074 11.6201 31.8654 11.4026 31.8667 11.1833V9.51663C31.8667 8.4056 31.4265 7.33984 30.6424 6.55266C29.8584 5.76549 28.7943 5.32104 27.6833 5.31663H26.0167C25.7973 5.3179 25.5799 5.27586 25.3768 5.19292C25.1738 5.10998 24.9891 4.98777 24.8333 4.8333L23.3333 3.3333C22.5337 2.57115 21.4713 2.146 20.3667 2.146C19.262 2.146 18.1997 2.57115 17.4 3.3333L15.9333 4.79997C15.7776 4.95443 15.5929 5.07664 15.3898 5.15958C15.1868 5.24252 14.9693 5.28457 14.75 5.2833H13.0833C12.5262 5.27224 11.9724 5.37215 11.4543 5.57722C10.9362 5.78229 10.464 6.08841 10.0654 6.47776C9.66675 6.8671 9.34956 7.33188 9.13231 7.84502C8.91506 8.35816 8.80209 8.9094 8.79999 9.46663V11.1333C8.81019 11.3598 8.77406 11.586 8.69382 11.7981C8.61358 12.0101 8.49091 12.2036 8.33333 12.3666L6.84999 13.85C6.46257 14.2371 6.1556 14.697 5.94678 15.2034C5.73797 15.7097 5.63144 16.2523 5.63333 16.8C5.6324 17.9105 6.0696 18.9765 6.84999 19.7666L8.33333 21.2333C8.4898 21.391 8.61317 21.5784 8.69617 21.7845C8.77918 21.9906 8.82014 22.2112 8.81666 22.4333V24.1C8.81226 24.6515 8.91655 25.1985 9.12357 25.7098C9.33059 26.221 9.63629 26.6865 10.0232 27.0796C10.4101 27.4727 10.8707 27.7858 11.3786 28.0009C11.8865 28.216 12.4318 28.3289 12.9833 28.3333H14.65C14.8705 28.3342 15.0886 28.3789 15.2918 28.4647C15.4949 28.5505 15.679 28.6758 15.8333 28.8333L17.3 30.3C18.0916 31.0776 19.157 31.5134 20.2667 31.5134C21.3764 31.5134 22.4417 31.0776 23.2333 30.3L24.7 28.8333C24.8544 28.6758 25.0384 28.5505 25.2416 28.4647C25.4447 28.3789 25.6628 28.3342 25.8833 28.3333H27.55C28.6581 28.3289 29.7196 27.8868 30.5032 27.1032C31.2868 26.3196 31.7289 25.2581 31.7333 24.15V22.4833C31.7298 22.2612 31.7708 22.0406 31.8538 21.8345C31.9368 21.6284 32.0602 21.441 32.2167 21.2833L33.7 19.8166C34.1009 19.4339 34.4225 18.9758 34.6462 18.4686C34.8699 17.9614 34.9914 17.4151 35.0038 16.8609C35.0162 16.3068 34.9192 15.7556 34.7184 15.2389C34.5175 14.7223 34.2168 14.2503 33.8333 13.85Z" fill="#57009B"/>
<path d="M19.2334 20.7C18.8976 20.697 18.5757 20.5659 18.3334 20.3333L15.5667 17.55C15.3327 17.3156 15.2012 16.9979 15.2012 16.6667C15.2012 16.3354 15.3327 16.0177 15.5667 15.7833C15.806 15.5522 16.1257 15.423 16.4584 15.423C16.7911 15.423 17.1108 15.5522 17.3501 15.7833L19.2334 17.6833L23.9001 13C24.1393 12.7689 24.459 12.6396 24.7917 12.6396C25.1244 12.6396 25.4441 12.7689 25.6834 13C25.9175 13.2344 26.049 13.5521 26.049 13.8833C26.049 14.2146 25.9175 14.5323 25.6834 14.7667L20.1167 20.3333C19.8805 20.5648 19.5641 20.6962 19.2334 20.7Z" fill="white"/>
</svg>
