<svg width="20" height="20" viewBox="0 0 20 20" fill="none" xmlns="http://www.w3.org/2000/svg">
<path d="M6.67227 15.2652C6.67207 14.9238 6.80507 14.6032 7.04627 14.3618L7.82747 13.5808C8.06887 13.3394 8.38967 13.2066 8.73067 13.2066C9.07187 13.2066 9.39267 13.3394 9.63407 13.5808L10.0001 13.9468L10.3663 13.5808C10.6077 13.3394 10.9287 13.2066 11.2699 13.2066C11.6111 13.2066 11.9317 13.3392 12.1727 13.5804L12.9541 14.3614C13.1955 14.6028 13.3283 14.9238 13.3281 15.2654C13.3281 15.6064 13.1949 15.9272 12.9539 16.1682L12.5887 16.5334C12.7557 16.5338 12.9239 16.5344 13.0857 16.5344C15.2651 16.5344 16.9303 16.4224 16.9303 14.1448C16.9301 11.76 15.1055 9.80224 12.7765 9.58984H7.22307C4.89427 9.80264 3.07007 11.7602 3.07007 14.1448C3.07007 16.4222 4.73447 16.5344 6.91407 16.5344C7.07607 16.5344 7.24447 16.5338 7.41167 16.5334L7.04667 16.1684C6.80527 15.9272 6.67227 15.6062 6.67227 15.2652Z" fill="#57009B"/>
<path d="M9.99994 8.9032C12.1823 8.9032 13.9515 7.13401 13.9515 4.9516C13.9515 2.76919 12.1823 1 9.99994 1C7.81753 1 6.04834 2.76919 6.04834 4.9516C6.04834 7.13401 7.81753 8.9032 9.99994 8.9032Z" fill="#57009B"/>
<path d="M11.3672 16.5351L12.3434 15.5585C12.5054 15.3967 12.5054 15.1345 12.3434 14.9725L11.5624 14.1913C11.4816 14.1107 11.3756 14.0703 11.2698 14.0703C11.1636 14.0703 11.0576 14.1109 10.9764 14.1917L9.99998 15.1683L9.02358 14.1917C8.94258 14.1109 8.83658 14.0703 8.73058 14.0703C8.62458 14.0703 8.51858 14.1109 8.43758 14.1917L7.65658 14.9727C7.49458 15.1347 7.49478 15.3967 7.65658 15.5585L8.63298 16.5351L7.65658 17.5115C7.49478 17.6737 7.49478 17.9357 7.65658 18.0975L8.43758 18.8785C8.51858 18.9595 8.62478 18.9999 8.73058 18.9999C8.83658 18.9999 8.94258 18.9595 9.02358 18.8787L9.99998 17.9021L10.9764 18.8787C11.0572 18.9595 11.1634 18.9999 11.2694 18.9999C11.3756 18.9999 11.4816 18.9595 11.5624 18.8787L12.3434 18.0975C12.5054 17.9357 12.5054 17.6737 12.3434 17.5115L11.3672 16.5351Z" fill="#D7443E"/>
</svg>
