<svg width="40" height="40" viewBox="0 0 40 40" fill="none" xmlns="http://www.w3.org/2000/svg">
<path d="M6.96875 6.875C6.90577 6.68557 6.87411 6.48713 6.875 6.2875V6.25C6.8871 5.75004 7.09364 5.2745 7.45075 4.92439C7.80786 4.57428 8.2874 4.3772 8.7875 4.375H10C9.99956 4.04657 10.0639 3.72128 10.1894 3.41777C10.3149 3.11425 10.499 2.83848 10.7312 2.60624C10.9635 2.37401 11.2393 2.18988 11.5428 2.0644C11.8463 1.93892 12.1716 1.87456 12.5 1.875H16.875C17.2033 1.87491 17.5285 1.93951 17.8318 2.06512C18.1352 2.19072 18.4108 2.37487 18.643 2.60703C18.8751 2.8392 19.0593 3.11483 19.1849 3.41819C19.3105 3.72154 19.3751 4.04667 19.375 4.375H19.9625C20.4633 4.37502 20.9441 4.57139 21.3016 4.92196C21.6592 5.27253 21.8651 5.74934 21.875 6.25V6.2875C21.8759 6.48713 21.8442 6.68557 21.7812 6.875C21.7121 7.10528 21.5949 7.31829 21.4375 7.5C21.2591 7.71894 21.0341 7.89537 20.779 8.01646C20.5238 8.13754 20.2449 8.20025 19.9625 8.2H8.7875C8.50587 8.20089 8.22764 8.13844 7.9734 8.01727C7.71917 7.89611 7.49543 7.71932 7.31875 7.5C7.15718 7.3202 7.03763 7.10671 6.96875 6.875ZM18.125 25.625C17.5171 25.6248 16.9224 25.8021 16.4138 26.1352C15.9053 26.4683 15.5051 26.9426 15.2625 27.5H13.75C13.4217 27.4999 13.0965 27.5645 12.7932 27.6901C12.4898 27.8157 12.2142 27.9999 11.982 28.232C11.7499 28.4642 11.5657 28.7398 11.4401 29.0432C11.3145 29.3465 11.2499 29.6717 11.25 30C10.587 30 9.95107 30.2634 9.48223 30.7322C9.01339 31.2011 8.75 31.837 8.75 32.5C8.75 33.163 9.01339 33.7989 9.48223 34.2678C9.95107 34.7366 10.587 35 11.25 35H5.625C5.45939 34.9995 5.30069 34.9335 5.18359 34.8164C5.06648 34.6993 5.00048 34.5406 5 34.375V8.125C5.00048 7.95939 5.06648 7.8007 5.18359 7.68359C5.30069 7.56648 5.45939 7.50048 5.625 7.5H5.86875C5.98455 7.79574 6.1517 8.06869 6.3625 8.30625C6.65756 8.66368 7.02792 8.95154 7.44712 9.14926C7.86632 9.34697 8.32401 9.44967 8.7875 9.45H19.9625C20.4244 9.45312 20.8812 9.3532 21.2996 9.1575C21.718 8.96181 22.0875 8.67527 22.3813 8.31875C22.5951 8.07644 22.7663 7.79959 22.8875 7.5H23.125C23.2906 7.50048 23.4493 7.56648 23.5664 7.68359C23.6835 7.8007 23.7495 7.95939 23.75 8.125V30H21.25V28.75C21.2469 27.9222 20.9166 27.1291 20.3313 26.5437C19.7459 25.9584 18.9528 25.6281 18.125 25.625ZM10.375 22C10.2422 21.901 10.0757 21.8586 9.91172 21.882C9.74777 21.9054 9.59975 21.9928 9.5 22.125L8.05625 24.05L7.31875 23.3063C7.20089 23.1894 7.04153 23.1239 6.87553 23.1243C6.70953 23.1246 6.55044 23.1907 6.43306 23.3081C6.31568 23.4254 6.24959 23.5845 6.24925 23.7505C6.24891 23.9165 6.31435 24.0759 6.43125 24.1938L7.68125 25.4438C7.79946 25.5603 7.95896 25.6255 8.125 25.625H8.16875C8.25829 25.6185 8.34539 25.5929 8.42412 25.5497C8.50285 25.5066 8.57137 25.447 8.625 25.375L10.5 22.875C10.599 22.7422 10.6414 22.5757 10.618 22.4117C10.5946 22.2478 10.5072 22.0998 10.375 22ZM10.375 17C10.2422 16.901 10.0757 16.8586 9.91172 16.882C9.74777 16.9054 9.59975 16.9928 9.5 17.125L8.05625 19.05L7.31875 18.3063C7.20089 18.1894 7.04153 18.1239 6.87553 18.1243C6.70953 18.1246 6.55044 18.1907 6.43306 18.3081C6.31568 18.4254 6.24959 18.5845 6.24925 18.7505C6.24891 18.9165 6.31435 19.0759 6.43125 19.1938L7.68125 20.4438C7.79946 20.5603 7.95896 20.6255 8.125 20.625H8.16875C8.25829 20.6185 8.34539 20.5929 8.42412 20.5497C8.50285 20.5066 8.57137 20.447 8.625 20.375L10.5 17.875C10.599 17.7422 10.6414 17.5757 10.618 17.4117C10.5946 17.2478 10.5072 17.0998 10.375 17ZM10.375 12C10.2422 11.901 10.0757 11.8586 9.91172 11.882C9.74777 11.9054 9.59975 11.9928 9.5 12.125L8.05625 14.05L7.31875 13.3063C7.20089 13.1894 7.04153 13.1239 6.87553 13.1243C6.70953 13.1246 6.55044 13.1907 6.43306 13.3081C6.31568 13.4254 6.24959 13.5845 6.24925 13.7505C6.24891 13.9165 6.31435 14.0759 6.43125 14.1938L7.68125 15.4438C7.79946 15.5603 7.95896 15.6255 8.125 15.625H8.16875C8.25829 15.6185 8.34539 15.5929 8.42412 15.5497C8.50285 15.5066 8.57137 15.447 8.625 15.375L10.5 12.875C10.599 12.7422 10.6414 12.5757 10.618 12.4117C10.5946 12.2478 10.5072 12.0998 10.375 12ZM11.875 13.125C11.8755 13.2906 11.9415 13.4493 12.0586 13.5664C12.1757 13.6835 12.3344 13.7495 12.5 13.75H21.875C22.0408 13.75 22.1997 13.6842 22.3169 13.5669C22.4342 13.4497 22.5 13.2908 22.5 13.125C22.5 12.9592 22.4342 12.8003 22.3169 12.6831C22.1997 12.5659 22.0408 12.5 21.875 12.5H12.5C12.3344 12.5005 12.1757 12.5665 12.0586 12.6836C11.9415 12.8007 11.8755 12.9594 11.875 13.125ZM11.875 16.875C11.8755 17.0406 11.9415 17.1993 12.0586 17.3164C12.1757 17.4335 12.3344 17.4995 12.5 17.5H21.875C22.0408 17.5 22.1997 17.4342 22.3169 17.3169C22.4342 17.1997 22.5 17.0408 22.5 16.875C22.5 16.7092 22.4342 16.5503 22.3169 16.4331C22.1997 16.3159 22.0408 16.25 21.875 16.25H12.5C12.3344 16.2505 12.1757 16.3165 12.0586 16.4336C11.9415 16.5507 11.8755 16.7094 11.875 16.875ZM11.875 20.625C11.8755 20.7906 11.9415 20.9493 12.0586 21.0664C12.1757 21.1835 12.3344 21.2495 12.5 21.25H21.875C22.0408 21.25 22.1997 21.1842 22.3169 21.0669C22.4342 20.9497 22.5 20.7908 22.5 20.625C22.5 20.4592 22.4342 20.3003 22.3169 20.1831C22.1997 20.0658 22.0408 20 21.875 20H12.5C12.3344 20.0005 12.1757 20.0665 12.0586 20.1836C11.9415 20.3007 11.8755 20.4594 11.875 20.625ZM21.875 25C22.0408 25 22.1997 24.9342 22.3169 24.8169C22.4342 24.6997 22.5 24.5408 22.5 24.375C22.5 24.2092 22.4342 24.0503 22.3169 23.9331C22.1997 23.8158 22.0408 23.75 21.875 23.75H12.5C12.3342 23.75 12.1753 23.8158 12.0581 23.9331C11.9408 24.0503 11.875 24.2092 11.875 24.375C11.875 24.5408 11.9408 24.6997 12.0581 24.8169C12.1753 24.9342 12.3342 25 12.5 25H21.875ZM23.125 6.25C23.6218 6.25145 24.0979 6.44946 24.4492 6.80078C24.8005 7.1521 24.9985 7.62817 25 8.125V30H26.875V6.875C26.8751 6.54667 26.8105 6.22154 26.6849 5.91819C26.5593 5.61483 26.3751 5.3392 26.143 5.10703C25.9108 4.87487 25.6352 4.69072 25.3318 4.56512C25.0285 4.43951 24.7033 4.37491 24.375 4.375H22.475C22.8868 4.90474 23.1149 5.55412 23.125 6.225V6.25ZM13.75 37.5C13.3124 37.4991 12.8827 37.3838 12.5034 37.1657C12.1241 36.9475 11.8083 36.634 11.5875 36.2563V36.25H5.625C5.12817 36.2486 4.65209 36.0505 4.30078 35.6992C3.94946 35.3479 3.75145 34.8718 3.75 34.375V8.125C3.75145 7.62817 3.94946 7.1521 4.30078 6.80078C4.65209 6.44946 5.12817 6.25145 5.625 6.25V6.21875C5.6334 5.54948 5.86181 4.90157 6.275 4.375H4.375C4.04667 4.37491 3.72154 4.43951 3.41818 4.56512C3.11483 4.69072 2.8392 4.87487 2.60703 5.10703C2.37487 5.3392 2.19072 5.61483 2.06512 5.91819C1.93951 6.22154 1.87491 6.54667 1.875 6.875V35.625C1.87491 35.9533 1.93951 36.2785 2.06512 36.5818C2.19072 36.8852 2.37487 37.1608 2.60703 37.393C2.8392 37.6251 3.11483 37.8093 3.41818 37.9349C3.72154 38.0605 4.04667 38.1251 4.375 38.125H15.625C15.4791 37.9322 15.3574 37.7223 15.2625 37.5H13.75ZM21.25 36.25C21.2527 36.9266 21.0331 37.5853 20.625 38.125H24.375C24.7033 38.1251 25.0285 38.0605 25.3318 37.9349C25.6352 37.8093 25.9108 37.6251 26.143 37.393C26.3751 37.1608 26.5593 36.8852 26.6849 36.5818C26.8105 36.2785 26.8751 35.9533 26.875 35.625V35H21.25V36.25ZM13.75 36.25H15V28.75H13.75C13.4188 28.751 13.1014 28.883 12.8672 29.1172C12.633 29.3514 12.501 29.6688 12.5 30V35C12.5008 35.3313 12.6328 35.6487 12.867 35.883C13.1013 36.1172 13.4187 36.2492 13.75 36.25ZM10 32.5C10 32.8315 10.1317 33.1495 10.3661 33.3839C10.6005 33.6183 10.9185 33.75 11.25 33.75V31.25C10.9185 31.25 10.6005 31.3817 10.3661 31.6161C10.1317 31.8505 10 32.1685 10 32.5ZM30 26.875C29.5029 26.8757 29.0265 27.0735 28.675 27.425C28.3235 27.7765 28.1257 28.253 28.125 28.75V31.25H20V28.75C20 28.2527 19.8025 27.7758 19.4508 27.4242C19.0992 27.0725 18.6223 26.875 18.125 26.875C17.6277 26.875 17.1508 27.0725 16.7992 27.4242C16.4475 27.7758 16.25 28.2527 16.25 28.75V36.25C16.25 36.7473 16.4475 37.2242 16.7992 37.5758C17.1508 37.9275 17.6277 38.125 18.125 38.125C18.6223 38.125 19.0992 37.9275 19.4508 37.5758C19.8025 37.2242 20 36.7473 20 36.25V33.75H28.125V36.25C28.125 36.7473 28.3225 37.2242 28.6742 37.5758C29.0258 37.9275 29.5027 38.125 30 38.125C30.4973 38.125 30.9742 37.9275 31.3258 37.5758C31.6775 37.2242 31.875 36.7473 31.875 36.25V28.75C31.8753 28.5037 31.8271 28.2597 31.7329 28.0321C31.6388 27.8044 31.5007 27.5976 31.3266 27.4234C31.1524 27.2493 30.9456 27.1112 30.7179 27.0171C30.4903 26.9229 30.2463 26.8747 30 26.875ZM34.375 28.75H33.125V36.25H34.375C34.7065 36.25 35.0245 36.1183 35.2589 35.8839C35.4933 35.6495 35.625 35.3315 35.625 35V30C35.625 29.6685 35.4933 29.3505 35.2589 29.1161C35.0245 28.8817 34.7065 28.75 34.375 28.75ZM36.875 31.25V33.75C37.2065 33.75 37.5245 33.6183 37.7589 33.3839C37.9933 33.1495 38.125 32.8315 38.125 32.5C38.125 32.1685 37.9933 31.8505 37.7589 31.6161C37.5245 31.3817 37.2065 31.25 36.875 31.25Z" fill="#57009B"/>
</svg>
