<svg width="474" height="427" viewBox="0 0 474 427" fill="none" xmlns="http://www.w3.org/2000/svg">
<g opacity="0.05">
<g style="mix-blend-mode:multiply" opacity="0.18">
<path d="M123.741 276.911C127.857 283.988 178.292 291.923 179.673 267.249C180.811 247.033 221.558 251.078 240.977 205.339C264.182 150.622 224.101 77.7715 146.643 77.7715C69.1592 77.7715 49.4854 147.155 49.4854 156.66C49.4854 169.973 90.7234 188.646 100.973 177.101C114.624 161.729 103.47 154.992 122.644 142.378C137.009 132.933 190.417 127.377 190.417 174.125C190.417 223.907 120.622 201.073 120.622 253.837C120.615 254.949 120.497 256.058 120.271 257.147C120.242 257.272 119.054 268.878 123.741 276.911Z" stroke="#0063BE" stroke-width="16.654" stroke-miterlimit="10"/>
</g>
<g style="mix-blend-mode:multiply" opacity="0.18">
<path d="M148.303 380.095C164.034 380.095 166.074 377.235 166.074 362.825C166.074 348.415 164.381 344.777 148.562 344.777C143.443 344.777 139.398 345.27 136.553 346.241C134.503 346.942 131.813 348.308 131.129 353.775C130.856 356.522 130.743 359.284 130.791 362.044C131.779 371.231 127.084 380.095 148.303 380.095Z" stroke="#0063BE" stroke-width="10" stroke-miterlimit="10"/>
</g>
<path d="M127.142 294.258C95.7338 285.292 97.5473 215.914 147.113 202.206C161.549 198.221 177.142 189.13 177.142 174.125C177.142 154.4 166.24 150.709 146.643 149.42C127.109 148.136 121.92 165.7 121.596 165.998C106.807 208.793 81.0322 192.258 70.3861 189.708C29.5141 173.566 32.3799 158.934 43.8061 128.989C46.6397 121.515 59.086 101.839 73.1733 89.6181C139.005 32.5101 260.656 75.1153 260.656 172.334C260.656 245.25 193.202 263.074 192.926 267.996C192.546 274.674 191.687 278.902 187.165 285.241C176.087 300.766 137.735 297.3 127.142 294.258ZM123.741 276.912C127.858 283.989 178.292 291.924 179.673 267.25C180.299 256.132 191.286 252.574 191.383 252.506C222.4 239.869 247.383 211.907 247.383 172.334C247.383 87.5239 140.165 49.073 81.8626 99.6574C69.5965 110.297 58.3304 128.115 56.205 133.716C46.2083 159.92 44.4735 165.183 75.2001 177.33C123.687 195.494 91.0649 136.136 146.639 136.136C162.297 136.136 173.248 139.387 180.123 146.076C195.786 161.339 199.484 201.534 150.64 215.011C115.266 224.796 117.234 265.757 123.741 276.912Z" fill="#1C1C1C"/>
<path d="M148.089 393.379C137.092 393.379 129.176 391.025 123.88 386.183L123.666 385.979C119.386 381.701 117.305 375.233 117.305 366.205V362.046C117.257 358.734 117.404 355.422 117.745 352.127C118.237 348.841 119.305 345.667 120.9 342.754C123.09 338.509 126.842 335.447 132.051 333.67C136.343 332.206 141.672 331.494 148.348 331.494C159.629 331.494 167.536 333.916 172.513 338.895C177.029 343.414 179.132 351.018 179.132 362.826C179.191 366.259 178.99 369.693 178.53 373.096C177.945 376.341 176.847 379.473 175.278 382.372C173.057 386.676 169.258 389.706 163.985 391.378C159.753 392.724 154.553 393.379 148.089 393.379ZM132.951 376.482C135.651 378.846 140.879 380.094 148.089 380.094C152.096 380.22 156.099 379.756 159.971 378.717C162.39 377.949 163.134 376.959 163.484 376.28C164.397 374.628 165.051 372.846 165.425 370.996C165.773 368.287 165.918 365.557 165.86 362.827C165.86 351.592 163.585 348.748 163.13 348.29C161.819 346.979 158.156 344.78 148.348 344.78C143.229 344.78 139.184 345.272 136.338 346.244C133.545 347.198 132.904 348.44 132.694 348.849C131.824 350.378 131.223 352.045 130.914 353.777C130.642 356.525 130.529 359.286 130.577 362.047V366.206C130.577 372.861 132.022 375.485 132.951 376.482Z" fill="#1C1C1C"/>
<g style="mix-blend-mode:multiply" opacity="0.08">
<path d="M474 426.051H154.376L154.163 398.954L156.419 398.829C156.557 398.822 170.254 398.046 175.379 396.543C183.142 394.27 189.066 389.825 192.51 383.691C194.531 380.216 195.948 376.423 196.701 372.474C197.246 368.875 197.486 365.236 197.418 361.596C197.418 353.156 196.437 341.029 187.954 333.19C181.008 326.77 170.779 323.649 156.684 323.649H154.283L154.504 305.746L156.83 305.731C170.997 305.636 204.521 302.435 209.799 274.749C209.966 273.891 210.322 273.082 210.841 272.38C211.36 271.678 212.029 271.101 212.799 270.691C274.202 237.48 285.428 183.513 275.462 144.076C261.892 90.3581 211.283 52.8409 152.4 52.8409H150.03V4.74446H5.68799V0H154.771V48.1145C185.32 48.5889 213.466 58.3027 236.309 76.2719C257.97 93.312 273.507 116.979 280.06 142.912C286.275 166.734 284.209 191.963 274.199 214.452C263.251 238.969 242.804 259.857 215.068 274.856C214.914 274.933 214.78 275.043 214.674 275.179C214.568 275.314 214.493 275.472 214.455 275.64C208.801 305.3 175.587 309.971 159.186 310.434L159.082 318.934C173.207 319.288 183.723 322.824 191.17 329.704C201.02 338.807 202.158 352.264 202.158 361.596C202.228 365.508 201.964 369.419 201.37 373.286C200.527 377.762 198.93 382.061 196.648 386.001C192.579 393.249 185.686 398.463 176.711 401.089C172.368 402.363 163.205 403.119 158.938 403.415L159.079 421.3H474V426.051Z" fill="#0063BE"/>
</g>
<path d="M473.746 427H148.688L148.475 399.903L150.731 399.779C150.869 399.771 164.566 398.995 169.691 397.492C177.454 395.219 183.378 390.775 186.822 384.64C188.843 381.165 190.26 377.372 191.013 373.423C191.558 369.824 191.798 366.185 191.73 362.545C191.73 354.106 190.749 341.978 182.266 334.139C175.32 327.719 165.091 324.598 150.996 324.598H148.595L148.816 306.695L151.142 306.68C165.309 306.585 198.833 303.385 204.111 275.698C204.278 274.841 204.634 274.031 205.153 273.329C205.672 272.628 206.341 272.05 207.111 271.64C268.514 238.429 279.74 184.462 269.774 145.025C256.204 91.3074 205.595 53.7901 146.712 53.7901H144.342V5.69367H0V0.949219H149.083V49.0637C179.632 49.5381 207.778 59.2519 230.621 77.2211C252.282 94.2613 267.819 117.929 274.372 143.862C280.587 167.683 278.521 192.912 268.512 215.401C257.563 239.918 237.116 260.806 209.38 275.805C209.226 275.882 209.092 275.993 208.986 276.128C208.88 276.264 208.805 276.421 208.767 276.589C203.113 306.249 169.899 310.921 153.498 311.384L153.394 319.883C167.519 320.237 178.035 323.773 185.482 330.653C195.332 339.756 196.47 353.214 196.47 362.545C196.54 366.457 196.276 370.368 195.682 374.235C194.839 378.711 193.242 383.01 190.96 386.951C186.891 394.198 179.998 399.412 171.023 402.038C166.68 403.312 157.517 404.069 153.25 404.365L153.391 422.249H473.746V427Z" fill="#1C1C1C"/>
</g>
</svg>
